<?xml version="1.0" standalone="no"?>
<!DOCTYPE svg PUBLIC "-//W3C//DTD SVG 20010904//EN"
 "http://www.w3.org/TR/2001/REC-SVG-20010904/DTD/svg10.dtd">
<svg version="1.0" xmlns="http://www.w3.org/2000/svg"
 width="406.000000pt" height="406.000000pt" viewBox="0 0 406.000000 406.000000"
 preserveAspectRatio="xMidYMid meet">
<metadata>
Created by potrace 1.11, written by Peter Selinger 2001-2013
</metadata>
<g transform="translate(0.000000,406.000000) scale(0.100000,-0.100000)"
fill="#000000" stroke="none">
<path d="M2620 3420 c-28 -57 -48 -106 -43 -110 10 -9 388 -150 402 -150 8 0
11 -78 11 -245 l0 -245 -748 0 -748 0 1 98 c0 53 3 102 7 108 5 7 41 10 95 9
48 -1 94 1 101 3 16 5 16 109 -1 142 -7 13 -26 34 -42 45 -29 19 -45 20 -320
19 -160 0 -300 -4 -312 -8 -34 -11 -55 -53 -55 -110 -1 -101 -19 -91 159 -91
l158 0 1 -105 1 -105 -114 -229 -114 -228 -32 6 c-82 15 -231 18 -304 6 -328
-52 -606 -302 -688 -620 -24 -91 -27 -122 -27 -230 1 -344 223 -663 545 -785
477 -179 1004 95 1126 584 18 73 29 141 30 188 1 21 4 22 186 25 229 4 218 -3
245 158 24 143 43 205 87 298 37 76 115 192 174 257 77 85 257 209 378 259 57
24 186 66 202 66 6 0 8 -47 7 -110 l-3 -111 -68 -24 c-116 -40 -214 -103 -308
-195 -91 -91 -130 -143 -172 -232 -63 -134 -88 -251 -82 -398 21 -575 585
-960 1130 -772 298 103 528 386 561 689 34 310 -73 577 -306 766 -68 55 -218
136 -280 152 -21 5 -44 45 -142 239 l-116 232 -1 282 c0 306 -3 323 -57 374
-18 16 -110 58 -239 108 -115 45 -215 84 -222 87 -7 3 -32 -35 -63 -97z m-195
-982 c-64 -45 -195 -191 -268 -299 -114 -171 -227 -414 -227 -491 0 -46 -9
-49 -135 -46 l-118 3 -17 50 c-24 71 -63 151 -102 213 -39 61 -157 184 -205
213 l-33 20 43 87 c24 48 63 128 87 179 l44 91 480 1 481 0 -30 -21z m-1425
-534 c227 -65 389 -276 390 -506 0 -341 -301 -595 -632 -532 -196 37 -355 181
-415 374 -25 81 -22 236 6 319 93 270 380 422 651 345z m2360 -4 c78 -23 167
-79 233 -146 58 -59 121 -184 137 -271 28 -162 -25 -341 -138 -457 -214 -222
-553 -226 -767 -10 -272 274 -171 738 191 874 111 41 228 45 344 10z"/>
</g>
</svg>
